<svg width="144" height="144" viewBox="0 0 144 144" fill="none" xmlns="http://www.w3.org/2000/svg">
<g clip-path="url(#clip0_219_4191)">
<path d="M0 72C0 32.2355 32.2355 0 72 0V0C111.764 0 144 32.2355 144 72V72C144 111.764 111.764 144 72 144V144C32.2355 144 0 111.764 0 72V72Z" fill="white" fill-opacity="0.15"/>
<path d="M140 72C140 34.4446 109.555 4 72 4C34.4446 4 4 34.4446 4 72C4 109.555 34.4446 140 72 140V144C32.2355 144 0 111.764 0 72C0 32.2355 32.2355 0 72 0C111.764 0 144 32.2355 144 72C144 111.764 111.764 144 72 144V140C109.555 140 140 109.555 140 72Z" fill="#65E09C"/>
<path d="M100.371 70.0225L80.072 90.5816L74.448 85.0297L85.3351 74.0028L49.1611 74.0038L49.1611 66.1013L85.1864 66.1001L74.4784 55.4907L80.041 49.8774L100.371 70.0225Z" fill="#65E09C"/>
</g>
<defs>
<clipPath id="clip0_219_4191">
<rect width="144" height="144" fill="white"/>
</clipPath>
</defs>
</svg>
